<mxfile host="Electron" modified="2023-04-21T19:46:46.287Z" agent="Mozilla/5.0 (Windows NT 10.0; Win64; x64) AppleWebKit/537.36 (KHTML, like Gecko) draw.io/21.1.2 Chrome/106.0.5249.199 Electron/21.4.3 Safari/537.36" etag="lJ_lueytM_LPCV2pdF6h" version="21.1.2" type="device">
  <diagram name="Page-1" id="3ZNWpio1twOVjBkZWGlh">
    <mxGraphModel dx="1098" dy="820" grid="1" gridSize="10" guides="1" tooltips="1" connect="1" arrows="1" fold="1" page="1" pageScale="1" pageWidth="850" pageHeight="1100" math="0" shadow="0">
      <root>
        <mxCell id="0" />
        <mxCell id="1" parent="0" />
        <mxCell id="CJfr3QqIfbeVyX5R_hRZ-74" value="" style="edgeStyle=orthogonalEdgeStyle;rounded=0;orthogonalLoop=1;jettySize=auto;html=1;" edge="1" parent="1" source="CJfr3QqIfbeVyX5R_hRZ-24" target="CJfr3QqIfbeVyX5R_hRZ-73">
          <mxGeometry relative="1" as="geometry" />
        </mxCell>
        <mxCell id="CJfr3QqIfbeVyX5R_hRZ-24" value="&lt;font color=&quot;#ffffff&quot; style=&quot;font-size: 16px;&quot;&gt;key:&amp;nbsp;&lt;br&gt;value:&amp;nbsp;&lt;br&gt;&lt;/font&gt;" style="rounded=1;whiteSpace=wrap;html=1;flipH=1;fillColor=#6C8EBF;strokeColor=#415573;align=left;" vertex="1" parent="1">
          <mxGeometry x="350" y="610" width="120" height="60" as="geometry" />
        </mxCell>
        <mxCell id="CJfr3QqIfbeVyX5R_hRZ-25" value="" style="rounded=1;whiteSpace=wrap;html=1;flipH=1;fillColor=#6C8EBF;strokeColor=#415573;" vertex="1" parent="1">
          <mxGeometry x="505" y="610" width="120" height="60" as="geometry" />
        </mxCell>
        <mxCell id="CJfr3QqIfbeVyX5R_hRZ-26" value="" style="rounded=1;whiteSpace=wrap;html=1;flipH=1;fillColor=#6C8EBF;strokeColor=#415573;" vertex="1" parent="1">
          <mxGeometry x="660" y="610" width="120" height="60" as="geometry" />
        </mxCell>
        <mxCell id="CJfr3QqIfbeVyX5R_hRZ-43" value="" style="rounded=1;whiteSpace=wrap;html=1;flipH=1;fillColor=#6C8EBF;strokeColor=#415573;" vertex="1" parent="1">
          <mxGeometry x="40" y="610" width="120" height="60" as="geometry" />
        </mxCell>
        <mxCell id="CJfr3QqIfbeVyX5R_hRZ-45" value="" style="rounded=1;whiteSpace=wrap;html=1;flipH=1;fillColor=#6C8EBF;strokeColor=#415573;" vertex="1" parent="1">
          <mxGeometry x="195" y="610" width="120" height="60" as="geometry" />
        </mxCell>
        <mxCell id="CJfr3QqIfbeVyX5R_hRZ-57" style="edgeStyle=orthogonalEdgeStyle;orthogonalLoop=1;jettySize=auto;html=1;exitX=1;exitY=0.5;exitDx=0;exitDy=0;entryX=0.5;entryY=0;entryDx=0;entryDy=0;curved=1;" edge="1" parent="1" source="CJfr3QqIfbeVyX5R_hRZ-55" target="CJfr3QqIfbeVyX5R_hRZ-24">
          <mxGeometry relative="1" as="geometry" />
        </mxCell>
        <mxCell id="CJfr3QqIfbeVyX5R_hRZ-55" value="&lt;font style=&quot;font-size: 18px;&quot;&gt;T1: read N&lt;/font&gt;" style="ellipse;whiteSpace=wrap;html=1;fillColor=#d5e8d4;strokeColor=#82b366;" vertex="1" parent="1">
          <mxGeometry x="249" y="480" width="120" height="80" as="geometry" />
        </mxCell>
        <mxCell id="CJfr3QqIfbeVyX5R_hRZ-58" style="edgeStyle=orthogonalEdgeStyle;orthogonalLoop=1;jettySize=auto;html=1;exitX=1;exitY=0.5;exitDx=0;exitDy=0;entryX=0.5;entryY=1;entryDx=0;entryDy=0;curved=1;" edge="1" parent="1" source="CJfr3QqIfbeVyX5R_hRZ-56" target="CJfr3QqIfbeVyX5R_hRZ-24">
          <mxGeometry relative="1" as="geometry" />
        </mxCell>
        <mxCell id="CJfr3QqIfbeVyX5R_hRZ-56" value="&lt;font style=&quot;font-size: 18px;&quot;&gt;T2: remove N&lt;/font&gt;" style="ellipse;whiteSpace=wrap;html=1;fillColor=#ffe6cc;strokeColor=#d79b00;" vertex="1" parent="1">
          <mxGeometry x="249" y="720" width="120" height="80" as="geometry" />
        </mxCell>
        <mxCell id="CJfr3QqIfbeVyX5R_hRZ-42" style="edgeStyle=orthogonalEdgeStyle;rounded=0;orthogonalLoop=1;jettySize=auto;html=1;exitX=1;exitY=0.5;exitDx=0;exitDy=0;entryX=0;entryY=0.5;entryDx=0;entryDy=0;" edge="1" parent="1" source="CJfr3QqIfbeVyX5R_hRZ-69" target="CJfr3QqIfbeVyX5R_hRZ-45">
          <mxGeometry relative="1" as="geometry" />
        </mxCell>
        <mxCell id="CJfr3QqIfbeVyX5R_hRZ-44" style="edgeStyle=orthogonalEdgeStyle;rounded=0;orthogonalLoop=1;jettySize=auto;html=1;exitX=0.5;exitY=0.5;exitDx=0;exitDy=0;entryX=0;entryY=0.5;entryDx=0;entryDy=0;strokeColor=#9C9C9C;exitPerimeter=0;" edge="1" parent="1" source="CJfr3QqIfbeVyX5R_hRZ-73">
          <mxGeometry relative="1" as="geometry">
            <mxPoint x="350" y="640" as="targetPoint" />
          </mxGeometry>
        </mxCell>
        <mxCell id="CJfr3QqIfbeVyX5R_hRZ-67" style="edgeStyle=orthogonalEdgeStyle;orthogonalLoop=1;jettySize=auto;html=1;exitX=0.5;exitY=0.5;exitDx=0;exitDy=0;entryX=0;entryY=0.25;entryDx=0;entryDy=0;curved=1;dashed=1;exitPerimeter=0;" edge="1" parent="1" source="CJfr3QqIfbeVyX5R_hRZ-73" target="CJfr3QqIfbeVyX5R_hRZ-25">
          <mxGeometry relative="1" as="geometry">
            <Array as="points">
              <mxPoint x="340" y="640" />
              <mxPoint x="340" y="580" />
              <mxPoint x="480" y="580" />
              <mxPoint x="480" y="625" />
            </Array>
          </mxGeometry>
        </mxCell>
        <mxCell id="CJfr3QqIfbeVyX5R_hRZ-32" style="edgeStyle=orthogonalEdgeStyle;rounded=0;orthogonalLoop=1;jettySize=auto;html=1;exitX=1;exitY=0.5;exitDx=0;exitDy=0;entryX=0;entryY=0.5;entryDx=0;entryDy=0;" edge="1" parent="1" source="CJfr3QqIfbeVyX5R_hRZ-77" target="CJfr3QqIfbeVyX5R_hRZ-25">
          <mxGeometry relative="1" as="geometry" />
        </mxCell>
        <mxCell id="CJfr3QqIfbeVyX5R_hRZ-33" style="edgeStyle=orthogonalEdgeStyle;rounded=0;orthogonalLoop=1;jettySize=auto;html=1;entryX=0;entryY=0.5;entryDx=0;entryDy=0;" edge="1" parent="1" target="CJfr3QqIfbeVyX5R_hRZ-26">
          <mxGeometry relative="1" as="geometry">
            <mxPoint x="610" y="640" as="sourcePoint" />
          </mxGeometry>
        </mxCell>
        <mxCell id="CJfr3QqIfbeVyX5R_hRZ-49" value="" style="endArrow=dash;html=1;rounded=0;exitX=1;exitY=0.5;exitDx=0;exitDy=0;endFill=0;" edge="1" parent="1" source="CJfr3QqIfbeVyX5R_hRZ-87">
          <mxGeometry width="50" height="50" relative="1" as="geometry">
            <mxPoint x="780" y="640" as="sourcePoint" />
            <mxPoint x="800" y="640" as="targetPoint" />
          </mxGeometry>
        </mxCell>
        <mxCell id="CJfr3QqIfbeVyX5R_hRZ-60" value="Callout1" parent="0" />
        <mxCell id="CJfr3QqIfbeVyX5R_hRZ-61" value="&lt;div style=&quot;text-align: left; font-size: 18px;&quot;&gt;&lt;span style=&quot;background-color: initial;&quot;&gt;&lt;font style=&quot;font-size: 18px;&quot;&gt;T1 obtains pointer to Node N.&lt;/font&gt;&lt;/span&gt;&lt;/div&gt;&lt;div style=&quot;text-align: left; font-size: 18px;&quot;&gt;&lt;span style=&quot;background-color: initial;&quot;&gt;&lt;font style=&quot;font-size: 18px;&quot;&gt;N must continue to exist until T1 is done using it.&amp;nbsp;&lt;/font&gt;&lt;/span&gt;&lt;/div&gt;" style="shape=callout;whiteSpace=wrap;html=1;perimeter=calloutPerimeter;position2=0;spacingLeft=6;size=30;position=0.04;base=20;fillColor=#fff2cc;strokeColor=#d6b656;" vertex="1" parent="CJfr3QqIfbeVyX5R_hRZ-60">
          <mxGeometry x="370" y="400" width="260" height="110" as="geometry" />
        </mxCell>
        <mxCell id="CJfr3QqIfbeVyX5R_hRZ-62" value="&lt;div style=&quot;text-align: left; font-size: 18px;&quot;&gt;&lt;span style=&quot;background-color: initial;&quot;&gt;&lt;font style=&quot;font-size: 18px;&quot;&gt;T2 removes Node N from list.&lt;/font&gt;&lt;/span&gt;&lt;/div&gt;&lt;div style=&quot;text-align: left; font-size: 18px;&quot;&gt;&lt;span style=&quot;background-color: initial;&quot;&gt;&lt;font style=&quot;font-size: 18px;&quot;&gt;Must detect that N is in use and defer deletion.&lt;/font&gt;&lt;/span&gt;&lt;/div&gt;" style="shape=callout;whiteSpace=wrap;html=1;perimeter=calloutPerimeter;position2=0;spacingLeft=6;size=30;position=0.04;base=20;fillColor=#fff2cc;strokeColor=#d6b656;flipV=1;flipH=0;" vertex="1" parent="CJfr3QqIfbeVyX5R_hRZ-60">
          <mxGeometry x="370" y="770" width="260" height="110" as="geometry" />
        </mxCell>
        <mxCell id="CJfr3QqIfbeVyX5R_hRZ-70" value="" style="group" vertex="1" connectable="0" parent="CJfr3QqIfbeVyX5R_hRZ-60">
          <mxGeometry x="140" y="635" width="10" height="10" as="geometry" />
        </mxCell>
        <mxCell id="CJfr3QqIfbeVyX5R_hRZ-68" value="" style="endArrow=none;html=1;rounded=0;exitX=0.75;exitY=1;exitDx=0;exitDy=0;entryX=0.75;entryY=0;entryDx=0;entryDy=0;" edge="1" parent="CJfr3QqIfbeVyX5R_hRZ-70" source="CJfr3QqIfbeVyX5R_hRZ-43" target="CJfr3QqIfbeVyX5R_hRZ-43">
          <mxGeometry width="50" height="50" relative="1" as="geometry">
            <mxPoint x="-50" y="25" as="sourcePoint" />
            <mxPoint y="-25" as="targetPoint" />
          </mxGeometry>
        </mxCell>
        <mxCell id="CJfr3QqIfbeVyX5R_hRZ-69" value="" style="ellipse;whiteSpace=wrap;html=1;aspect=fixed;fillColor=#000000;" vertex="1" parent="CJfr3QqIfbeVyX5R_hRZ-70">
          <mxGeometry width="10" height="10" as="geometry" />
        </mxCell>
        <mxCell id="CJfr3QqIfbeVyX5R_hRZ-71" value="" style="group" vertex="1" connectable="0" parent="CJfr3QqIfbeVyX5R_hRZ-60">
          <mxGeometry x="297" y="646" width="10" height="10" as="geometry" />
        </mxCell>
        <mxCell id="CJfr3QqIfbeVyX5R_hRZ-72" value="" style="endArrow=none;html=1;rounded=0;exitX=0.75;exitY=1;exitDx=0;exitDy=0;entryX=0.75;entryY=0;entryDx=0;entryDy=0;" edge="1" parent="CJfr3QqIfbeVyX5R_hRZ-71" source="CJfr3QqIfbeVyX5R_hRZ-45" target="CJfr3QqIfbeVyX5R_hRZ-45">
          <mxGeometry width="50" height="50" relative="1" as="geometry">
            <mxPoint x="-50" y="25" as="sourcePoint" />
            <mxPoint y="-25" as="targetPoint" />
          </mxGeometry>
        </mxCell>
        <mxCell id="CJfr3QqIfbeVyX5R_hRZ-73" value="" style="ellipse;whiteSpace=wrap;html=1;aspect=fixed;fillColor=#000000;" vertex="1" parent="CJfr3QqIfbeVyX5R_hRZ-71">
          <mxGeometry x="-2" y="-11" width="10" height="10" as="geometry" />
        </mxCell>
        <mxCell id="CJfr3QqIfbeVyX5R_hRZ-75" value="" style="group" vertex="1" connectable="0" parent="CJfr3QqIfbeVyX5R_hRZ-60">
          <mxGeometry x="470" y="655" width="10" height="10" as="geometry" />
        </mxCell>
        <mxCell id="CJfr3QqIfbeVyX5R_hRZ-76" value="" style="endArrow=none;html=1;rounded=0;exitX=0.75;exitY=1;exitDx=0;exitDy=0;entryX=0.75;entryY=0;entryDx=0;entryDy=0;" edge="1" parent="CJfr3QqIfbeVyX5R_hRZ-75" source="CJfr3QqIfbeVyX5R_hRZ-24" target="CJfr3QqIfbeVyX5R_hRZ-24">
          <mxGeometry width="50" height="50" relative="1" as="geometry">
            <mxPoint x="-50" y="25" as="sourcePoint" />
            <mxPoint y="-25" as="targetPoint" />
          </mxGeometry>
        </mxCell>
        <mxCell id="CJfr3QqIfbeVyX5R_hRZ-77" value="" style="ellipse;whiteSpace=wrap;html=1;aspect=fixed;fillColor=#000000;" vertex="1" parent="CJfr3QqIfbeVyX5R_hRZ-75">
          <mxGeometry x="-19" y="-20" width="10" height="10" as="geometry" />
        </mxCell>
        <mxCell id="CJfr3QqIfbeVyX5R_hRZ-81" value="&lt;font color=&quot;#ffffff&quot; style=&quot;font-size: 16px;&quot;&gt;next&lt;/font&gt;" style="text;html=1;align=center;verticalAlign=middle;resizable=0;points=[];autosize=1;strokeColor=none;fillColor=none;rotation=-45;" vertex="1" parent="CJfr3QqIfbeVyX5R_hRZ-60">
          <mxGeometry x="428" y="611" width="50" height="30" as="geometry" />
        </mxCell>
        <mxCell id="CJfr3QqIfbeVyX5R_hRZ-84" value="" style="endArrow=none;html=1;rounded=0;exitX=0.75;exitY=1;exitDx=0;exitDy=0;entryX=0.75;entryY=0;entryDx=0;entryDy=0;" edge="1" parent="CJfr3QqIfbeVyX5R_hRZ-60" source="CJfr3QqIfbeVyX5R_hRZ-25" target="CJfr3QqIfbeVyX5R_hRZ-25">
          <mxGeometry width="50" height="50" relative="1" as="geometry">
            <mxPoint x="600" y="670" as="sourcePoint" />
            <mxPoint x="600" y="610" as="targetPoint" />
          </mxGeometry>
        </mxCell>
        <mxCell id="CJfr3QqIfbeVyX5R_hRZ-85" value="" style="endArrow=none;html=1;rounded=0;exitX=0.75;exitY=1;exitDx=0;exitDy=0;entryX=0.75;entryY=0;entryDx=0;entryDy=0;" edge="1" parent="CJfr3QqIfbeVyX5R_hRZ-60" target="CJfr3QqIfbeVyX5R_hRZ-26">
          <mxGeometry width="50" height="50" relative="1" as="geometry">
            <mxPoint x="750" y="671" as="sourcePoint" />
            <mxPoint x="750" y="611" as="targetPoint" />
          </mxGeometry>
        </mxCell>
        <mxCell id="CJfr3QqIfbeVyX5R_hRZ-86" value="" style="ellipse;whiteSpace=wrap;html=1;aspect=fixed;fillColor=#000000;" vertex="1" parent="CJfr3QqIfbeVyX5R_hRZ-60">
          <mxGeometry x="607" y="635" width="10" height="10" as="geometry" />
        </mxCell>
        <mxCell id="CJfr3QqIfbeVyX5R_hRZ-87" value="0" style="ellipse;whiteSpace=wrap;html=1;aspect=fixed;fillColor=#000000;" vertex="1" parent="CJfr3QqIfbeVyX5R_hRZ-60">
          <mxGeometry x="760" y="635" width="10" height="10" as="geometry" />
        </mxCell>
        <mxCell id="CJfr3QqIfbeVyX5R_hRZ-89" value="" style="points=[[0,0.5,0],[0.24,0,0],[0.5,0.28,0],[0.995,0.475,0],[0.5,0.72,0],[0.24,1,0]];verticalLabelPosition=bottom;sketch=0;html=1;verticalAlign=top;aspect=fixed;align=center;pointerEvents=1;shape=mxgraph.cisco19.key;fillColor=#005073;strokeColor=none;" vertex="1" parent="CJfr3QqIfbeVyX5R_hRZ-60">
          <mxGeometry x="386" y="624.5" width="27.78" height="12.5" as="geometry" />
        </mxCell>
        <mxCell id="CJfr3QqIfbeVyX5R_hRZ-90" value="" style="verticalLabelPosition=bottom;verticalAlign=top;html=1;shape=mxgraph.basic.wave2;dy=0.45;fillColor=#005073;fontColor=#ffffff;strokeColor=#314354;" vertex="1" parent="CJfr3QqIfbeVyX5R_hRZ-60">
          <mxGeometry x="400" y="647" width="30" height="11" as="geometry" />
        </mxCell>
        <mxCell id="CJfr3QqIfbeVyX5R_hRZ-94" value="&lt;font style=&quot;font-size: 24px;&quot;&gt;N-1&lt;/font&gt;" style="text;html=1;align=center;verticalAlign=middle;resizable=0;points=[];autosize=1;strokeColor=none;fillColor=none;" vertex="1" parent="CJfr3QqIfbeVyX5R_hRZ-60">
          <mxGeometry x="185" y="582" width="60" height="40" as="geometry" />
        </mxCell>
        <mxCell id="CJfr3QqIfbeVyX5R_hRZ-95" value="&lt;font style=&quot;font-size: 24px;&quot;&gt;N&lt;/font&gt;" style="text;html=1;align=center;verticalAlign=middle;resizable=0;points=[];autosize=1;strokeColor=none;fillColor=none;" vertex="1" parent="CJfr3QqIfbeVyX5R_hRZ-60">
          <mxGeometry x="340" y="582" width="40" height="40" as="geometry" />
        </mxCell>
        <mxCell id="CJfr3QqIfbeVyX5R_hRZ-96" value="&lt;font style=&quot;font-size: 24px;&quot;&gt;N+1&lt;/font&gt;" style="text;html=1;align=center;verticalAlign=middle;resizable=0;points=[];autosize=1;strokeColor=none;fillColor=none;" vertex="1" parent="CJfr3QqIfbeVyX5R_hRZ-60">
          <mxGeometry x="492" y="582" width="70" height="40" as="geometry" />
        </mxCell>
      </root>
    </mxGraphModel>
  </diagram>
</mxfile>
